<?xml version="1.0" encoding="UTF-8"?>
<svg xmlns="http://www.w3.org/2000/svg" xmlns:xlink="http://www.w3.org/1999/xlink" viewBox="0 0 497 510.1820426707">
  <defs>
    <style>
      .uuid-0b9eb8c5-0724-485e-999c-9a6fadcc9cb7 {
        fill: #f6a8c0;
      }

      .uuid-6123b446-d388-4290-9278-f2505791eb77 {
        fill: #f492b1;
      }

      .uuid-99294233-d763-42b2-8985-884750e7639c {
        fill: #f7b0c6;
      }

      .uuid-89d6ee01-c6f5-4525-a484-6e34e48a9522 {
        fill: #f8bed0;
      }

      .uuid-6ae64bde-3de2-43a0-abc0-52022aff005d {
        fill: #fef5f9;
      }

      .uuid-dae1e375-c309-4356-abdb-dc22922a8ee4 {
        fill: #f8b8cc;
      }

      .uuid-dc7e3875-0db7-41cb-b9e4-37500c5c8a4d {
        fill: #f9c1d3;
      }

      .uuid-978f0b13-4c28-49f0-9ec5-a3e136f8fed6 {
        fill: #f5a0bb;
      }

      .uuid-8f00a3ef-6f3b-4908-8874-cb17dfa3c5da {
        fill: #f9c0d1;
      }

      .uuid-6b614d01-90c6-4b7e-9dfe-a99ab8931fb4 {
        fill: #f59ab6;
      }

      .uuid-2661784a-e579-44e9-8dd0-41f6ece661e9 {
        fill: #f59bb6;
      }

      .uuid-51f44ec1-2407-48b0-86d1-748b61ba4ce5 {
        fill: #f497b4;
      }

      .uuid-07d5f3c9-f5ae-4f50-8e9e-14730fa15a0a {
        fill: #f7b2c8;
      }

      .uuid-bfc4bab6-fffe-47e7-bb59-efec16c43798 {
        clip-path: url(#uuid-b0db93db-1980-4ea7-8bcb-50af00fbf82a);
      }

      .uuid-d87bb97f-5756-4aa5-b7e1-b944e8eaaf90 {
        fill: #f7b1c7;
      }

      .uuid-c35df3d8-9346-4ab1-b8fc-54dc72638182 {
        clip-path: url(#uuid-2852b47b-671d-4a33-b680-94a70340c4f1);
      }

      .uuid-0053259d-d775-499d-b1a6-eb9544044a4c {
        fill: #fff;
      }

      .uuid-bac32c98-10f9-4b21-9b8f-7e4ff47b264c {
        clip-path: url(#uuid-1f0b4d17-6b35-4a41-afbf-f47aec075b79);
      }

      .uuid-4f62db34-330e-4a1f-97a3-54ab0a73e54b {
        fill: #f9c4d4;
      }

      .uuid-cd4a49a4-4b25-4780-842f-0be91982b4cb {
        fill: #f7b5ca;
      }

      .uuid-a6cd7eb8-cdb3-41d5-b3a2-a62ee4cf8673 {
        fill: #f6abc2;
      }

      .uuid-ea5b9360-2675-4422-b150-57fcc806e87a {
        fill: #f7adc4;
      }

      .uuid-40331014-c9a6-4749-a49d-c27d96e15842 {
        fill: #f8bdd0;
      }

      .uuid-f2eca354-1903-40d8-b930-2be87018eb90 {
        fill: #f48cab;
      }

      .uuid-3b227ac4-75dc-4d4e-ad99-8773e71b5cc1 {
        fill: #f494b2;
      }

      .uuid-2135e436-6e15-4875-aa3c-491322b8ba0b {
        fill: none;
      }

      .uuid-fe872481-34a9-4803-acb4-52877798b3da {
        fill: #f495b3;
      }

      .uuid-f668445e-8d46-449d-a9e6-e34d687871fb {
        fill: #f8bacd;
      }

      .uuid-49002eef-2613-477b-a492-800505c9c0c5 {
        fill: #f498b4;
      }

      .uuid-c245f49f-8f10-4798-836f-bf829c81dd8f {
        clip-path: url(#uuid-09c9bd82-9ff7-4a00-8361-5da013691e56);
      }

      .uuid-70864459-9c6c-4a7e-83c9-dfc43f66b1ac {
        fill: #dc2429;
      }

      .uuid-73af4985-5f9d-43b4-a427-db087a9257d7 {
        fill: #fff8f8;
      }

      .uuid-b6d9a3fd-8394-4032-a709-9441cd00da72 {
        isolation: isolate;
      }

      .uuid-a2a7751e-6e00-4c2a-b691-d84660343eb7 {
        fill: #f490af;
      }

      .uuid-299549ce-6f7b-48f8-b9f6-dba231a82cb3 {
        fill: #fac9d8;
      }

      .uuid-f03e8482-697e-461c-b3dd-8e9bb7f537d6 {
        fill: #f6a2bd;
      }

      .uuid-0bc7c097-9254-444d-905b-421671bda39d {
        fill: #f496b3;
      }

      .uuid-832b1f0f-832c-4e82-a708-91a2695e10c8 {
        fill: #f9c2d4;
      }

      .uuid-ea0ba887-2b40-47fc-89f5-28cc99dd76f5 {
        fill: #f8bcce;
      }

      .uuid-63d733e3-873b-4522-80da-6b92f3c938a6 {
        fill: #f9c6d6;
      }

      .uuid-a2eb662d-4e4c-4fff-ae92-3e4e1ec7abd1 {
        fill: #f491af;
      }

      .uuid-a3c2b268-21c8-4d67-83a6-3a842b378e63 {
        fill: #f9c7d8;
      }

      .uuid-0ab87257-b18d-48f7-92db-e423e86259af {
        fill: #f8bbcf;
      }

      .uuid-74245b0c-2ace-46fe-bddb-7e2047dd3e8c {
        fill: #f9c8d7;
      }

      .uuid-138d8fb3-f4c9-491b-bf5d-d3a6a7eb6504 {
        fill: #f6a3bd;
      }

      .uuid-558e7a9c-698c-4c2d-b7d0-aef311b64b97 {
        fill: #f59fba;
      }

      .uuid-a21f9139-63eb-49a1-8bd2-3b5af5c32225 {
        fill: #f59eb9;
      }

      .uuid-5df5a3db-3bac-4f2f-b5bb-288c1313fcff {
        mix-blend-mode: multiply;
      }

      .uuid-b729fb63-8c4e-4442-b031-1e1da4a6aa50 {
        fill: #f8bfd2;
      }

      .uuid-8bb8b520-177d-4d84-817f-20f06297c3c7 {
        fill: #f598b5;
      }

      .uuid-170804c0-e4b5-4039-8826-216ea76945c1 {
        fill: #f48ead;
      }

      .uuid-ed2539cc-519e-49a5-b0e3-eef528e4a90d {
        fill: #e54e46;
      }

      .uuid-7426f3a6-4c7a-4ccb-a465-7f989e1e2a9c {
        fill: #f9c3d5;
      }

      .uuid-9e03abda-6f60-4e75-8ceb-7bc2bd0a7e47 {
        fill: #f7acc3;
      }

      .uuid-7ba68ca8-4019-473f-ac68-91af1e8f5610 {
        fill: #f9c5d6;
      }

      .uuid-e8a24289-8a4f-4f51-b931-30d641abafd6 {
        fill: #f48fae;
      }

      .uuid-7a2ded7f-b64b-4c8f-9c24-452ef4af3867 {
        fill: #f8b7cb;
      }

      .uuid-e3e9974b-235f-4af9-9175-80b872fd55f0 {
        fill: #f5a2bc;
      }

      .uuid-138b8cc9-433e-41ae-b41f-611ab80cb1b5 {
        fill: #f493b1;
      }

      .uuid-b96c8fb8-6e86-4423-8c49-7996829f413b {
        fill: #f6a7bf;
      }

      .uuid-c5453c83-9f2a-4d51-a4d0-398142c2244e {
        fill: #f59bb7;
      }

      .uuid-4c5fb0fc-33e6-4f37-b282-90b9c0ad802d {
        fill: #f6a9c1;
      }

      .uuid-ab1ea862-c9d7-46e5-b583-4a7a9daaeeaa {
        fill: #f7b4c9;
      }

      .uuid-3604f258-fc57-47d3-b6f9-168aae651115 {
        fill: #f7afc5;
      }

      .uuid-0211ec86-7fca-4b40-b23d-5c0ea5bb80cd {
        fill: #f59eba;
      }

      .uuid-8f42a415-07d8-4ff2-9cf7-fa2a2469c80b {
        fill: #f7b3c8;
      }

      .uuid-bca599f9-058a-4674-b92b-20d495412b97 {
        fill: #f7b6cb;
      }

      .uuid-6aea9c18-f4df-4eff-b6e5-50c442a8b9e2 {
        clip-path: url(#uuid-b28f2341-19b4-4e40-935d-e5f437766aad);
      }

      .uuid-d826e1c2-d0a4-433b-88d0-6297232ad45a {
        fill: #f48dac;
      }

      .uuid-00c0252f-48fe-4d81-844b-683e48d3f64d {
        fill: #f59db9;
      }

      .uuid-acee978f-146b-42c6-b2c9-58c2243910d0 {
        fill: #f06597;
      }

      .uuid-3c1f5470-adc1-4d27-9d5e-f1e0f25cd7b2 {
        fill: #f6a5bf;
      }
    </style>
    <clipPath id="uuid-b0db93db-1980-4ea7-8bcb-50af00fbf82a">
      <path class="uuid-2135e436-6e15-4875-aa3c-491322b8ba0b" d="M318.7225124232,103.8293228704c-10.6846756695-36.2075992022-46.9593967137-78.5441887018-70.4414-43.4365,0-.0049-.003-.0069-.0049-.0118h0c0,.0049-.0645.0069-.0645.0118-1.9306-4.9141-12.0898-15.5625-22.7793-12.8594-36.0491424243,8.3905836136-59.1030553134,65.367556725-51.3003486461,107.0463499073,5.5855486461,31.9458500927,24.3999486461,50.2192732574,43.3121486461,69.0678500927,11.0976,11.0586224092,28.081,36.7237217609,30.832,36.6456217628,2.7519-.078199998,22.9795-28.8144992721,35.6113-41.4921989518,30.7396956709-25.1420711537,50.3970606021-75.4565341497,34.835-114.971722811Z"/>
    </clipPath>
    <clipPath id="uuid-1f0b4d17-6b35-4a41-afbf-f47aec075b79">
      <path class="uuid-2135e436-6e15-4875-aa3c-491322b8ba0b" d="M121.0760124232,145.1330475424c-37.7402384914-1.0259092414-89.2130784976,20.3877238629-63.082,53.5712986467h-.0098c.001,0-.0156.0643999984-.0127.0653999983-5.2666.3193999919-18.5342,6.691399831-19.2666,17.6923995531-3.160252437,36.8725523159,43.9056109631,76.4085198564,85.9553843641,81.8685416737,32.1071156359,4.557256143,55.3005156359-7.6859435477,79.0710156359-19.8519432404,13.9463-7.1347998198,43.6045-15.3554996121,44.3808-17.9979995453.7754-2.6396999333-20.3027-30.755899223-28.457-46.6855988206-14.4119633567-37.0106554297-56.189674839-71.2465277302-98.5791-68.6620982654Z"/>
    </clipPath>
    <clipPath id="uuid-b28f2341-19b4-4e40-935d-e5f437766aad">
      <path class="uuid-2135e436-6e15-4875-aa3c-491322b8ba0b" d="M99.5330124232,345.6301424774c-12.6396441753,35.5787739593-8.1796524133,91.1418562839,31.4551,76.5497980662-.002.0028999999-.0029.0067999998-.0029.0096823268h0c.0029-.0028823269.0547.0313176722.0586.0293176723-1.3252,5.1093998709.6367,19.6952995025,10.872,23.791099399,34.092924107,14.4049972256,86.2389624691-18.1484673583,104.4240074268-56.4485099996,14.2566925732-29.1266878386,9.7771925732-54.9684871858,5.5554925732-81.3327865198-2.4785-15.4706996092-1.1338-46.2177988324-3.4043-47.7714987932-2.2734-1.5566217587-35.5254,9.8027997524-53.1982,12.6366996808-39.6486810169,2.2698158731-85.1224983755,31.4258806845-95.7598,72.5361981676Z"/>
    </clipPath>
    <clipPath id="uuid-2852b47b-671d-4a33-b680-94a70340c4f1">
      <path class="uuid-2135e436-6e15-4875-aa3c-491322b8ba0b" d="M282.8348124232,428.5100403837c29.9302416652,23.0148756319,84.151979381,35.9407431643,82.5224-6.2578998419.003,0,.0049.0038999999.0088.0038999999-.0019-.0038999999.0489-.0458999988.0459-.0458999988,4.4483,2.8388999283,18.9287,5.4794823275,25.9873-2.9901999245,24.231218474-27.9732206787,9.391947726-87.6253515103-21.4181179649-116.7547559827-23.2966820351-22.5635617653-49.2566820351-26.2843404038-75.6374820351-30.4161402995-15.4776-2.4247999387-44.3037-13.2059996664-46.4825-11.5264214659-2.1806,1.6807217146-1.6542,36.815520827-4.4209,54.4971203803-10.092014477,38.4076058273,3.5793342868,90.6696475984,39.3946,113.490297133Z"/>
    </clipPath>
    <clipPath id="uuid-09c9bd82-9ff7-4a00-8361-5da013691e56">
      <path class="uuid-2135e436-6e15-4875-aa3c-491322b8ba0b" d="M418.9393124232,279.2355441547c31.1392451282-21.3534050352,60.1858140512-68.9252366792,19.5468-80.4169979685.003,0,.0069-.0057999999.0069-.0067999998h0s-.0244-.0585999985-.0283-.0585999985c4.0742-3.3555233175,11.0595-16.307599588,5.1875-25.6395993523-19.1172017971-31.6894469779-80.4341947786-36.0101004368-117.6617233276-15.7078007402-28.6527766724,15.1834007534-40.2181766724,38.7214001588-52.2992766724,62.534876775-7.0888,13.9717224293-26.25,38.0547218209-25.3271,40.6465217554.9267,2.5946999345,34.5039,12.9501996729,50.4658,21.0458994683,33.4130822266,21.4643155739,87.3338492499,24.6148337737,120.1094-2.3974999394Z"/>
    </clipPath>
  </defs>
  <g class="uuid-b6d9a3fd-8394-4032-a709-9441cd00da72">
    <g id="uuid-2e144497-cd78-49a3-b62b-775ca5d098b9" data-name="Layer_1">
      <g>
        <g>
          <circle class="uuid-acee978f-146b-42c6-b2c9-58c2243910d0" cx="248.5" cy="248.5" r="248.5"/>
          <circle class="uuid-6ae64bde-3de2-43a0-abc0-52022aff005d" cx="248.5" cy="248.5" r="238.1025104603"/>
        </g>
        <g>
          <path class="uuid-0053259d-d775-499d-b1a6-eb9544044a4c" d="M121.0760124232,145.1330475424c-37.7402384914-1.0259092414-89.2130784976,20.3877238629-63.082,53.5712986467h-.0098c.001,0-.0156.0643999984-.0127.0653999983-5.2666.3193999919-18.5342,6.691399831-19.2666,17.6923995531-3.160252437,36.8725523159,43.9056109631,76.4085198564,85.9553843641,81.8685416737,32.1071156359,4.557256143,55.3005156359-7.6859435477,79.0710156359-19.8519432404,13.9463-7.1347998198,43.6045-15.3554996121,44.3808-17.9979995453.7754-2.6396999333-20.3027-30.755899223-28.457-46.6855988206-14.4119633567-37.0106554297-56.189674839-71.2465277302-98.5791-68.6620982654Z"/>
          <path class="uuid-0053259d-d775-499d-b1a6-eb9544044a4c" d="M99.5330124232,345.6301424774c-12.6396441753,35.5787739593-8.1796524133,91.1418562839,31.4551,76.5497980662-.002.0028999999-.0029.0067999998-.0029.0096823268h0c.0029-.0028823269.0547.0313176722.0586.0293176723-1.3252,5.1093998709.6367,19.6952995025,10.872,23.791099399,34.092924107,14.4049972256,86.2389624691-18.1484673583,104.4240074268-56.4485099996,14.2566925732-29.1266878386,9.7771925732-54.9684871858,5.5554925732-81.3327865198-2.4785-15.4706996092-1.1338-46.2177988324-3.4043-47.7714987932-2.2734-1.5566217587-35.5254,9.8027997524-53.1982,12.6366996808-39.6486810169,2.2698158731-85.1224983755,31.4258806845-95.7598,72.5361981676Z"/>
          <path class="uuid-0053259d-d775-499d-b1a6-eb9544044a4c" d="M282.8348124232,428.5100403837c29.9302416652,23.0148756319,84.151979381,35.9407431643,82.5224-6.2578998419.003,0,.0049.0038999999.0088.0038999999-.0019-.0038999999.0489-.0458999988.0459-.0458999988,4.4483,2.8388999283,18.9287,5.4794823275,25.9873-2.9901999245,24.231218474-27.9732206787,9.391947726-87.6253515103-21.4181179649-116.7547559827-23.2966820351-22.5635617653-49.2566820351-26.2843404038-75.6374820351-30.4161402995-15.4776-2.4247999387-44.3037-13.2059996664-46.4825-11.5264214659-2.1806,1.6807217146-1.6542,36.815520827-4.4209,54.4971203803-10.092014477,38.4076058273,3.5793342868,90.6696475984,39.3946,113.490297133Z"/>
          <path class="uuid-0053259d-d775-499d-b1a6-eb9544044a4c" d="M418.9393124232,279.2355441547c31.1392451282-21.3534050352,60.1858140512-68.9252366792,19.5468-80.4169979685.003,0,.0069-.0057999999.0069-.0067999998h0s-.0244-.0585999985-.0283-.0585999985c4.0742-3.3555233175,11.0595-16.307599588,5.1875-25.6395993523-19.1172017971-31.6894469779-80.4341947786-36.0101004368-117.6617233276-15.7078007402-28.6527766724,15.1834007534-40.2181766724,38.7214001588-52.2992766724,62.534876775-7.0888,13.9717224293-26.25,38.0547218209-25.3271,40.6465217554.9267,2.5946999345,34.5039,12.9501996729,50.4658,21.0458994683,33.4130822266,21.4643155739,87.3338492499,24.6148337737,120.1094-2.3974999394Z"/>
          <g class="uuid-bfc4bab6-fffe-47e7-bb59-efec16c43798">
            <rect class="uuid-f2eca354-1903-40d8-b930-2be87018eb90" x="170.5506124232" y="258.7746228704" width="155" height="2"/>
            <rect class="uuid-d826e1c2-d0a4-433b-88d0-6297232ad45a" x="170.5506124232" y="256.7746228704" width="155" height="2"/>
            <rect class="uuid-170804c0-e4b5-4039-8826-216ea76945c1" x="170.5506124232" y="254.7746228704" width="155" height="2"/>
            <rect class="uuid-e8a24289-8a4f-4f51-b931-30d641abafd6" x="170.5506124232" y="252.7746228704" width="155" height="2"/>
            <rect class="uuid-a2a7751e-6e00-4c2a-b691-d84660343eb7" x="170.5506124232" y="250.7746228704" width="155" height="2"/>
            <rect class="uuid-a2eb662d-4e4c-4fff-ae92-3e4e1ec7abd1" x="170.5506124232" y="248.7746228704" width="155" height="2"/>
            <rect class="uuid-6123b446-d388-4290-9278-f2505791eb77" x="170.5506124232" y="246.7746228704" width="155" height="2"/>
            <rect class="uuid-138b8cc9-433e-41ae-b41f-611ab80cb1b5" x="170.5506124232" y="244.7746228704" width="155" height="2"/>
            <rect class="uuid-3b227ac4-75dc-4d4e-ad99-8773e71b5cc1" x="170.5506124232" y="242.7746228704" width="155" height="2"/>
            <rect class="uuid-fe872481-34a9-4803-acb4-52877798b3da" x="170.5506124232" y="240.7746228704" width="155" height="2"/>
            <rect class="uuid-0bc7c097-9254-444d-905b-421671bda39d" x="170.5506124232" y="238.7746228704" width="155" height="2"/>
            <rect class="uuid-51f44ec1-2407-48b0-86d1-748b61ba4ce5" x="170.5506124232" y="236.7746228704" width="155" height="2"/>
            <rect class="uuid-49002eef-2613-477b-a492-800505c9c0c5" x="170.5506124232" y="234.7746228704" width="155" height="2"/>
            <rect class="uuid-8bb8b520-177d-4d84-817f-20f06297c3c7" x="170.5506124232" y="233.7746228704" width="155" height="1"/>
            <rect class="uuid-6b614d01-90c6-4b7e-9dfe-a99ab8931fb4" x="170.5506124232" y="231.7746228704" width="155" height="2"/>
            <rect class="uuid-2661784a-e579-44e9-8dd0-41f6ece661e9" x="170.5506124232" y="229.7746228704" width="155" height="2"/>
            <rect class="uuid-c5453c83-9f2a-4d51-a4d0-398142c2244e" x="170.5506124232" y="227.7746228704" width="155" height="2"/>
            <rect class="uuid-00c0252f-48fe-4d81-844b-683e48d3f64d" x="170.5506124232" y="225.7746228704" width="155" height="2"/>
            <rect class="uuid-0211ec86-7fca-4b40-b23d-5c0ea5bb80cd" x="170.5506124232" y="223.7746228704" width="155" height="2"/>
            <rect class="uuid-a21f9139-63eb-49a1-8bd2-3b5af5c32225" x="170.5506124232" y="221.7746228704" width="155" height="2"/>
            <rect class="uuid-558e7a9c-698c-4c2d-b7d0-aef311b64b97" x="170.5506124232" y="219.7746228704" width="155" height="2"/>
            <rect class="uuid-978f0b13-4c28-49f0-9ec5-a3e136f8fed6" x="170.5506124232" y="217.7746228704" width="155" height="2"/>
            <rect class="uuid-e3e9974b-235f-4af9-9175-80b872fd55f0" x="170.5506124232" y="215.7746228704" width="155" height="2"/>
            <rect class="uuid-f03e8482-697e-461c-b3dd-8e9bb7f537d6" x="170.5506124232" y="213.7746228704" width="155" height="2"/>
            <rect class="uuid-138d8fb3-f4c9-491b-bf5d-d3a6a7eb6504" x="170.5506124232" y="211.7746228704" width="155" height="2"/>
            <rect class="uuid-3c1f5470-adc1-4d27-9d5e-f1e0f25cd7b2" x="170.5506124232" y="209.7746228704" width="155" height="2"/>
            <rect class="uuid-3c1f5470-adc1-4d27-9d5e-f1e0f25cd7b2" x="170.5506124232" y="207.7746228704" width="155" height="2"/>
            <rect class="uuid-b96c8fb8-6e86-4423-8c49-7996829f413b" x="170.5506124232" y="206.7746228704" width="155" height="1"/>
            <rect class="uuid-0b9eb8c5-0724-485e-999c-9a6fadcc9cb7" x="170.5506124232" y="204.7746228704" width="155" height="2"/>
            <rect class="uuid-4c5fb0fc-33e6-4f37-b282-90b9c0ad802d" x="170.5506124232" y="202.7746228704" width="155" height="2"/>
            <rect class="uuid-a6cd7eb8-cdb3-41d5-b3a2-a62ee4cf8673" x="170.5506124232" y="200.7746228704" width="155" height="2"/>
            <rect class="uuid-a6cd7eb8-cdb3-41d5-b3a2-a62ee4cf8673" x="170.5506124232" y="198.7746228704" width="155" height="2"/>
            <rect class="uuid-9e03abda-6f60-4e75-8ceb-7bc2bd0a7e47" x="170.5506124232" y="196.7746228704" width="155" height="2"/>
            <rect class="uuid-ea5b9360-2675-4422-b150-57fcc806e87a" x="170.5506124232" y="194.7746228704" width="155" height="2"/>
            <rect class="uuid-3604f258-fc57-47d3-b6f9-168aae651115" x="170.5506124232" y="192.7746228704" width="155" height="2"/>
            <rect class="uuid-3604f258-fc57-47d3-b6f9-168aae651115" x="170.5506124232" y="190.7746228704" width="155" height="2"/>
            <rect class="uuid-99294233-d763-42b2-8985-884750e7639c" x="170.5506124232" y="188.7746228704" width="155" height="2"/>
            <rect class="uuid-d87bb97f-5756-4aa5-b7e1-b944e8eaaf90" x="170.5506124232" y="186.7746228704" width="155" height="2"/>
            <rect class="uuid-07d5f3c9-f5ae-4f50-8e9e-14730fa15a0a" x="170.5506124232" y="184.7746228704" width="155" height="2"/>
            <rect class="uuid-8f42a415-07d8-4ff2-9cf7-fa2a2469c80b" x="170.5506124232" y="182.7746228704" width="155" height="2"/>
            <rect class="uuid-ab1ea862-c9d7-46e5-b583-4a7a9daaeeaa" x="170.5506124232" y="180.7746228704" width="155" height="2"/>
            <rect class="uuid-cd4a49a4-4b25-4780-842f-0be91982b4cb" x="170.5506124232" y="179.7746228704" width="155" height="1"/>
            <rect class="uuid-bca599f9-058a-4674-b92b-20d495412b97" x="170.5506124232" y="177.7746228704" width="155" height="2"/>
            <rect class="uuid-7a2ded7f-b64b-4c8f-9c24-452ef4af3867" x="170.5506124232" y="175.7746228704" width="155" height="2"/>
            <rect class="uuid-dae1e375-c309-4356-abdb-dc22922a8ee4" x="170.5506124232" y="173.7746228704" width="155" height="2"/>
            <rect class="uuid-f668445e-8d46-449d-a9e6-e34d687871fb" x="170.5506124232" y="171.7746228704" width="155" height="2"/>
            <rect class="uuid-0ab87257-b18d-48f7-92db-e423e86259af" x="170.5506124232" y="169.7746228704" width="155" height="2"/>
            <rect class="uuid-ea0ba887-2b40-47fc-89f5-28cc99dd76f5" x="170.5506124232" y="167.7746228704" width="155" height="2"/>
            <rect class="uuid-40331014-c9a6-4749-a49d-c27d96e15842" x="170.5506124232" y="165.7746228704" width="155" height="2"/>
            <rect class="uuid-89d6ee01-c6f5-4525-a484-6e34e48a9522" x="170.5506124232" y="163.7746228704" width="155" height="2"/>
            <rect class="uuid-b729fb63-8c4e-4442-b031-1e1da4a6aa50" x="170.5506124232" y="161.7746228704" width="155" height="2"/>
            <rect class="uuid-8f00a3ef-6f3b-4908-8874-cb17dfa3c5da" x="170.5506124232" y="159.7746228704" width="155" height="2"/>
            <rect class="uuid-dc7e3875-0db7-41cb-b9e4-37500c5c8a4d" x="170.5506124232" y="157.7746228704" width="155" height="2"/>
            <rect class="uuid-832b1f0f-832c-4e82-a708-91a2695e10c8" x="170.5506124232" y="155.7746228704" width="155" height="2"/>
            <rect class="uuid-7426f3a6-4c7a-4ccb-a465-7f989e1e2a9c" x="170.5506124232" y="154.7746228704" width="155" height="1"/>
            <rect class="uuid-4f62db34-330e-4a1f-97a3-54ab0a73e54b" x="170.5506124232" y="152.7746228704" width="155" height="2"/>
            <rect class="uuid-7ba68ca8-4019-473f-ac68-91af1e8f5610" x="170.5506124232" y="150.7746228704" width="155" height="2"/>
            <rect class="uuid-63d733e3-873b-4522-80da-6b92f3c938a6" x="170.5506124232" y="148.7746228704" width="155" height="2"/>
            <rect class="uuid-a3c2b268-21c8-4d67-83a6-3a842b378e63" x="170.5506124232" y="146.7746228704" width="155" height="2"/>
            <rect class="uuid-74245b0c-2ace-46fe-bddb-7e2047dd3e8c" x="170.5506124232" y="144.7746228704" width="155" height="2"/>
            <rect class="uuid-299549ce-6f7b-48f8-b9f6-dba231a82cb3" x="170.5506124232" y="142.7746228704" width="155" height="2"/>
            <rect class="uuid-299549ce-6f7b-48f8-b9f6-dba231a82cb3" x="170.5506124232" y="44.7746228704" width="155" height="98"/>
          </g>
          <g class="uuid-5df5a3db-3bac-4f2f-b5bb-288c1313fcff">
            <g class="uuid-bac32c98-10f9-4b21-9b8f-7e4ff47b264c">
              <polygon class="uuid-f2eca354-1903-40d8-b930-2be87018eb90" points="231.8353124232 302.7746228704 248.5506124232 258.4650446794 248.5506124232 302.7746228704 231.8353124232 302.7746228704"/>
              <path class="uuid-f2eca354-1903-40d8-b930-2be87018eb90" d="M229.7640124232,302.7746228704l18.7866-49.7050780547c2.5947362642,2.5298461068-15.9768847592,46.5551503806-16.7148,49.7050780547h-2.0718Z"/>
              <path class="uuid-d826e1c2-d0a4-433b-88d0-6297232ad45a" d="M227.6917124232,302.7746228704l20.8589-55.1034779183c3.0140625099,1.4122750205-18.2684342582,52.559729548-18.7866,55.1034779183h-2.0723Z"/>
              <path class="uuid-170804c0-e4b5-4039-8826-216ea76945c1" d="M225.6204124232,302.7746228704l22.9302-60.501c3.0808214877,1.5275647461-20.3976840657,57.9437935529-20.8589,60.501h-2.0713Z"/>
              <path class="uuid-e8a24289-8a4f-4f51-b931-30d641abafd6" d="M223.5482124232,302.7746228704l25.0024-65.8983776456c3.345379518.5953702152-22.6277528794,63.9219576153-22.9302,65.8983776456h-2.0722Z"/>
              <polygon class="uuid-a2a7751e-6e00-4c2a-b691-d84660343eb7" points="221.4764124232 302.7746228704 248.5506124232 231.4797453611 248.5506124232 236.8762452248 223.5482124232 302.7746228704 221.4764124232 302.7746228704"/>
              <polygon class="uuid-a2eb662d-4e4c-4fff-ae92-3e4e1ec7abd1" points="219.4046124232 302.7746228704 248.5506124232 226.0822454975 248.5506124232 231.4797453611 221.4764124232 302.7746228704 219.4046124232 302.7746228704"/>
              <polygon class="uuid-6123b446-d388-4290-9278-f2505791eb77" points="217.3328124232 302.7746228704 248.5506124232 220.6857456338 248.5506124232 226.0822454975 219.4046124232 302.7746228704 217.3328124232 302.7746228704"/>
              <polygon class="uuid-138b8cc9-433e-41ae-b41f-611ab80cb1b5" points="215.2610124232 302.7746228704 248.5506124232 215.2883457702 248.5506124232 220.6857456338 217.3328124232 302.7746228704 215.2610124232 302.7746228704"/>
              <polygon class="uuid-3b227ac4-75dc-4d4e-ad99-8773e71b5cc1" points="213.1893124232 302.7746228704 248.5506124232 209.8908459065 248.5506124232 215.2883457702 215.2610124232 302.7746228704 213.1893124232 302.7746228704"/>
              <polygon class="uuid-fe872481-34a9-4803-acb4-52877798b3da" points="211.1175124232 302.7746228704 248.5506124232 204.4933460429 248.5506124232 209.8908459065 213.1893124232 302.7746228704 211.1175124232 302.7746228704"/>
              <polygon class="uuid-0bc7c097-9254-444d-905b-421671bda39d" points="209.0452124232 302.7746228704 248.5506124232 199.0959461792 248.5506124232 204.4933460429 211.1175124232 302.7746228704 209.0452124232 302.7746228704"/>
              <polygon class="uuid-51f44ec1-2407-48b0-86d1-748b61ba4ce5" points="206.9735124232 302.7746228704 248.5506124232 193.6984463156 248.5506124232 199.0959461792 209.0452124232 302.7746228704 206.9735124232 302.7746228704"/>
              <polygon class="uuid-49002eef-2613-477b-a492-800505c9c0c5" points="204.9022124232 302.7746228704 248.5506124232 188.3019464519 248.5506124232 193.6984463156 206.9735124232 302.7746228704 204.9022124232 302.7746228704"/>
              <polygon class="uuid-8bb8b520-177d-4d84-817f-20f06297c3c7" points="202.8304124232 302.7746228704 248.6976124232 182.9045465882 248.5506124232 182.9689465866 248.5506124232 188.3019464519 204.9022124232 302.7746228704 202.8304124232 302.7746228704"/>
              <polygon class="uuid-6b614d01-90c6-4b7e-9dfe-a99ab8931fb4" points="200.7586124232 302.7746228704 247.0604124232 182.2111466058 248.8660124232 182.876246589 202.8304124232 302.7746228704 200.7586124232 302.7746228704"/>
              <polygon class="uuid-2661784a-e579-44e9-8dd0-41f6ece661e9" points="198.6863124232 302.7746228704 245.2542124232 181.5178466233 247.0604124232 182.1828466065 200.7586124232 302.7746228704 198.6863124232 302.7746228704"/>
              <polygon class="uuid-c5453c83-9f2a-4d51-a4d0-398142c2244e" points="196.6146124232 302.7746228704 243.4485124232 180.8244466408 245.2542124232 181.489446624 198.6863124232 302.7746228704 196.6146124232 302.7746228704"/>
              <polygon class="uuid-00c0252f-48fe-4d81-844b-683e48d3f64d" points="194.5428124232 302.7746228704 241.6429124232 180.1310466583 243.4485124232 180.7961466415 196.6146124232 302.7746228704 194.5428124232 302.7746228704"/>
              <polygon class="uuid-0211ec86-7fca-4b40-b23d-5c0ea5bb80cd" points="192.4710124232 302.7746228704 239.8372124232 179.4387466758 241.6429124232 180.102746659 194.5428124232 302.7746228704 192.4710124232 302.7746228704"/>
              <polygon class="uuid-a21f9139-63eb-49a1-8bd2-3b5af5c32225" points="190.3992124232 302.7746228704 238.0316124232 178.7453466933 239.8372124232 179.4103466765 192.4710124232 302.7746228704 190.3992124232 302.7746228704"/>
              <polygon class="uuid-558e7a9c-698c-4c2d-b7d0-aef311b64b97" points="188.3275124232 302.7746228704 236.2259124232 178.0519467108 238.0316124232 178.717046694 190.3992124232 302.7746228704 188.3275124232 302.7746228704"/>
              <polygon class="uuid-978f0b13-4c28-49f0-9ec5-a3e136f8fed6" points="186.2557124232 302.7746228704 234.4197124232 177.3586228704 236.2259124232 178.0236228704 188.3275124232 302.7746228704 186.2557124232 302.7746228704"/>
              <polygon class="uuid-e3e9974b-235f-4af9-9175-80b872fd55f0" points="184.1839124232 302.7746228704 232.6141124232 176.6652467459 234.4197124232 177.3303467291 186.2557124232 302.7746228704 184.1839124232 302.7746228704"/>
              <polygon class="uuid-f03e8482-697e-461c-b3dd-8e9bb7f537d6" points="182.1116124232 302.7746228704 230.8084124232 175.9728467634 232.6141124232 176.6369467466 184.1839124232 302.7746228704 182.1116124232 302.7746228704"/>
              <polygon class="uuid-138d8fb3-f4c9-491b-bf5d-d3a6a7eb6504" points="180.0399124232 302.7746228704 229.0027124232 175.2795467809 230.8084124232 175.9445467641 182.1116124232 302.7746228704 180.0399124232 302.7746228704"/>
              <polygon class="uuid-3c1f5470-adc1-4d27-9d5e-f1e0f25cd7b2" points="177.9681124232 302.7746228704 227.1971124232 174.5861467984 229.0027124232 175.2512467816 180.0399124232 302.7746228704 177.9681124232 302.7746228704"/>
              <polygon class="uuid-3c1f5470-adc1-4d27-9d5e-f1e0f25cd7b2" points="175.8968124232 302.7746228704 225.3914124232 173.8928468159 227.1971124232 174.5578467991 177.9681124232 302.7746228704 175.8968124232 302.7746228704"/>
              <polygon class="uuid-b96c8fb8-6e86-4423-8c49-7996829f413b" points="173.8250124232 302.7746228704 223.5858124232 173.1994468334 225.3914124232 173.8644468166 175.8968124232 302.7746228704 173.8250124232 302.7746228704"/>
              <polygon class="uuid-0b9eb8c5-0724-485e-999c-9a6fadcc9cb7" points="171.7532124232 302.7746228704 221.7796124232 172.5070468509 223.5858124232 173.1711468341 173.8250124232 302.7746228704 171.7532124232 302.7746228704"/>
              <polygon class="uuid-4c5fb0fc-33e6-4f37-b282-90b9c0ad802d" points="169.6810124232 302.7746228704 219.9739124232 171.8137468684 221.7796124232 172.4787468516 171.7532124232 302.7746228704 169.6810124232 302.7746228704"/>
              <polygon class="uuid-a6cd7eb8-cdb3-41d5-b3a2-a62ee4cf8673" points="167.6092124232 302.7746228704 218.1683124232 171.1203468859 219.9739124232 171.7853468691 169.6810124232 302.7746228704 167.6092124232 302.7746228704"/>
              <polygon class="uuid-a6cd7eb8-cdb3-41d5-b3a2-a62ee4cf8673" points="165.5374124232 302.7746228704 216.3626124232 170.4269469035 218.1683124232 171.0920468867 167.6092124232 302.7746228704 165.5374124232 302.7746228704"/>
              <polygon class="uuid-9e03abda-6f60-4e75-8ceb-7bc2bd0a7e47" points="163.4656124232 302.7746228704 214.5569124232 169.7336228704 216.3626124232 170.3986228704 165.5374124232 302.7746228704 163.4656124232 302.7746228704"/>
              <polygon class="uuid-ea5b9360-2675-4422-b150-57fcc806e87a" points="161.3939124232 302.7746228704 212.7513124232 169.0412469385 214.5569124232 169.7053469217 163.4656124232 302.7746228704 161.3939124232 302.7746228704"/>
              <polygon class="uuid-3604f258-fc57-47d3-b6f9-168aae651115" points="159.3221124232 302.7746228704 210.9456124232 168.347846956 212.7513124232 169.0129469392 161.3939124232 302.7746228704 159.3221124232 302.7746228704"/>
              <polygon class="uuid-3604f258-fc57-47d3-b6f9-168aae651115" points="157.2503124232 302.7746228704 209.1395124232 167.6545469735 210.9456124232 168.3195469567 159.3221124232 302.7746228704 157.2503124232 302.7746228704"/>
              <polygon class="uuid-99294233-d763-42b2-8985-884750e7639c" points="155.1785124232 302.7746228704 207.3338124232 166.961146991 209.1395124232 167.6262469742 157.2503124232 302.7746228704 155.1785124232 302.7746228704"/>
              <polygon class="uuid-d87bb97f-5756-4aa5-b7e1-b944e8eaaf90" points="153.1063124232 302.7746228704 205.5281124232 166.2687470085 207.3338124232 166.9328469917 155.1785124232 302.7746228704 153.1063124232 302.7746228704"/>
              <polygon class="uuid-07d5f3c9-f5ae-4f50-8e9e-14730fa15a0a" points="151.0345124232 302.7746228704 203.7225124232 165.575447026 205.5281124232 166.2404470092 153.1063124232 302.7746228704 151.0345124232 302.7746228704"/>
              <polygon class="uuid-8f42a415-07d8-4ff2-9cf7-fa2a2469c80b" points="148.9627124232 302.7746228704 201.9168124232 164.8820470435 203.7225124232 165.5471470267 151.0345124232 302.7746228704 148.9627124232 302.7746228704"/>
              <polygon class="uuid-ab1ea862-c9d7-46e5-b583-4a7a9daaeeaa" points="146.8909124232 302.7746228704 200.1111124232 164.188747061 201.9168124232 164.8537470442 148.9627124232 302.7746228704 146.8909124232 302.7746228704"/>
              <polygon class="uuid-cd4a49a4-4b25-4780-842f-0be91982b4cb" points="144.8196124232 302.7746228704 198.3055124232 163.4953470786 200.1111124232 164.1603470618 146.8909124232 302.7746228704 144.8196124232 302.7746228704"/>
              <polygon class="uuid-bca599f9-058a-4674-b92b-20d495412b97" points="142.7479124232 302.7746228704 196.4993124232 162.8029470961 198.3055124232 163.4670470793 144.8196124232 302.7746228704 142.7479124232 302.7746228704"/>
              <polygon class="uuid-7a2ded7f-b64b-4c8f-9c24-452ef4af3867" points="140.6761124232 302.7746228704 194.6937124232 162.1096228704 196.4993124232 162.7746228704 142.7479124232 302.7746228704 140.6761124232 302.7746228704"/>
              <polygon class="uuid-dae1e375-c309-4356-abdb-dc22922a8ee4" points="138.6038124232 302.7746228704 192.8880124232 161.4162471311 194.6937124232 162.0812471143 140.6761124232 302.7746228704 138.6038124232 302.7746228704"/>
              <polygon class="uuid-f668445e-8d46-449d-a9e6-e34d687871fb" points="136.5320124232 302.7746228704 191.0823124232 160.7228471486 192.8880124232 161.3879471318 138.6038124232 302.7746228704 136.5320124232 302.7746228704"/>
              <polygon class="uuid-0ab87257-b18d-48f7-92db-e423e86259af" points="134.4603124232 302.7746228704 189.2767124232 160.0295471661 191.0823124232 160.6945471493 136.5320124232 302.7746228704 134.4603124232 302.7746228704"/>
              <polygon class="uuid-ea0ba887-2b40-47fc-89f5-28cc99dd76f5" points="132.3885124232 302.7746228704 187.4710124232 159.3371471836 189.2767124232 160.0012471668 134.4603124232 302.7746228704 132.3885124232 302.7746228704"/>
              <polygon class="uuid-40331014-c9a6-4749-a49d-c27d96e15842" points="130.3167124232 302.7746228704 185.6653124232 158.6437472011 187.4710124232 159.3088471843 132.3885124232 302.7746228704 130.3167124232 302.7746228704"/>
              <polygon class="uuid-89d6ee01-c6f5-4525-a484-6e34e48a9522" points="128.2449124232 302.7746228704 183.8592124232 157.9504472186 185.6653124232 158.6154472018 130.3167124232 302.7746228704 128.2449124232 302.7746228704"/>
              <polygon class="uuid-b729fb63-8c4e-4442-b031-1e1da4a6aa50" points="126.1732124232 302.7746228704 182.0535124232 157.2570472362 183.8592124232 157.9221472194 128.2449124232 302.7746228704 126.1732124232 302.7746228704"/>
              <polygon class="uuid-8f00a3ef-6f3b-4908-8874-cb17dfa3c5da" points="124.1009124232 302.7746228704 180.2479124232 156.5637472537 182.0535124232 157.2287472369 126.1732124232 302.7746228704 124.1009124232 302.7746228704"/>
              <polygon class="uuid-dc7e3875-0db7-41cb-b9e4-37500c5c8a4d" points="122.0291124232 302.7746228704 178.4422124232 155.8713472712 180.2479124232 156.5353472544 124.1009124232 302.7746228704 122.0291124232 302.7746228704"/>
              <polygon class="uuid-832b1f0f-832c-4e82-a708-91a2695e10c8" points="119.9573124232 302.7746228704 176.6365124232 155.1779472887 178.4422124232 155.8430472719 122.0291124232 302.7746228704 119.9573124232 302.7746228704"/>
              <polygon class="uuid-7426f3a6-4c7a-4ccb-a465-7f989e1e2a9c" points="119.3328124232 302.7746228704 118.0716124232 302.3469435709 174.8309124232 154.5129473055 176.6365124232 155.163347289 119.9573124232 302.7746228704 119.3328124232 302.7746228704"/>
              <rect class="uuid-4f62db34-330e-4a1f-97a3-54ab0a73e54b" x="66.3570690397" y="227.1587890559" width="158.3824367671" height="1.9343127799" transform="translate(-119.5660316895 282.349084038) rotate(-69.0205592698)"/>
              <rect class="uuid-7ba68ca8-4019-473f-ac68-91af1e8f5610" x="64.5511054404" y="226.4657808035" width="158.3828139657" height="1.9341293198" transform="translate(-120.1020102205 280.0985548407) rotate(-68.9946048509)"/>
              <rect class="uuid-63d733e3-873b-4522-80da-6b92f3c938a6" x="62.7455190397" y="225.7725890909" width="158.3824367671" height="1.9343127799" transform="translate(-120.6102299732 277.9846430027) rotate(-68.9982094848)"/>
              <rect class="uuid-a3c2b268-21c8-4d67-83a6-3a842b378e63" x="60.9399165982" y="225.0794895762" width="158.38204165" height="1.9342118443" transform="translate(-121.1272688774 275.8250305894) rotate(-68.9918394055)"/>
              <rect class="uuid-74245b0c-2ace-46fe-bddb-7e2047dd3e8c" x="59.1342665982" y="224.3861575172" width="158.38204165" height="1.9341759973" transform="translate(-121.6350994167 273.7119849461) rotate(-68.9956666732)"/>
              <rect class="uuid-299549ce-6f7b-48f8-b9f6-dba231a82cb3" x="57.3283492439" y="223.6931058375" width="158.3825263586" height="1.9340793918" transform="translate(-122.1260952747 271.6939999017) rotate(-69.0205592698)"/>
              <polygon class="uuid-299549ce-6f7b-48f8-b9f6-dba231a82cb3" points="107.4407124232 298.2453436745 37.5506124232 271.3391443542 37.5506124232 144.7746228704 149.3450124232 144.7746228704 164.0985124232 150.3908474096 107.4407124232 298.2453436745"/>
            </g>
          </g>
          <g class="uuid-5df5a3db-3bac-4f2f-b5bb-288c1313fcff">
            <g class="uuid-6aea9c18-f4df-4eff-b6e5-50c442a8b9e2">
              <polygon class="uuid-f2eca354-1903-40d8-b930-2be87018eb90" points="260.5506124232 265.3361445058 244.6673124232 258.7746228704 260.5506124232 258.7746228704 260.5506124232 265.3361445058"/>
              <polygon class="uuid-f2eca354-1903-40d8-b930-2be87018eb90" points="260.5506124232 267.4035444536 239.5506124232 258.7746228704 244.6673124232 258.7746228704 260.5506124232 265.3361445058 260.5506124232 267.4035444536"/>
              <polygon class="uuid-d826e1c2-d0a4-433b-88d0-6297232ad45a" points="260.5506124232 269.4699444014 234.4359124232 258.7746228704 239.5506124232 258.7746228704 260.5506124232 267.4035444536 260.5506124232 269.4699444014"/>
              <polygon class="uuid-170804c0-e4b5-4039-8826-216ea76945c1" points="260.5506124232 271.5373443492 229.3187124232 258.7746228704 234.4359124232 258.7746228704 260.5506124232 269.4699444014 260.5506124232 271.5373443492"/>
              <path class="uuid-e8a24289-8a4f-4f51-b931-30d641abafd6" d="M260.5506124232,273.603744297l-36.3462-14.8291214266c2.9957741908-2.2756213934,33.0531667306,11.8002498666,36.3462,12.7627214788v2.0663999478Z"/>
              <path class="uuid-a2a7751e-6e00-4c2a-b691-d84660343eb7" d="M260.5506124232,275.6711442448l-41.4634-16.8965213744c2.2519260978-2.5984874373,38.5447148117,14.0301623328,41.4634,14.8291214266v2.0673999478Z"/>
              <path class="uuid-a2eb662d-4e4c-4fff-ae92-3e4e1ec7abd1" d="M260.5506124232,277.7385441925l-46.5806-18.9639213221c2.5544962369-2.6104475258,43.5597585562,16.1368844745,46.5806,16.8965213744v2.0673999478Z"/>
              <path class="uuid-6123b446-d388-4290-9278-f2505791eb77" d="M260.5506124232,279.8049441403l-51.6948-21.0303212699c1.5856828172-3.0044068137,49.1950135068,18.4172493893,51.6948,18.9639213221v2.0663999478Z"/>
              <path class="uuid-138b8cc9-433e-41ae-b41f-611ab80cb1b5" d="M260.5506124232,281.8723440881l-56.812-23.0977212177c1.7335552413-3.0583922687,54.2705794981,20.5354002112,56.812,21.0303212699v2.0673999478Z"/>
              <path class="uuid-3b227ac4-75dc-4d4e-ad99-8773e71b5cc1" d="M260.5506124232,283.9396228704l-61.9292-25.165c2.2545807617-3.1515072453,58.6771243438,22.5243122992,61.9292,23.0977212177v2.0672787823Z"/>
              <polygon class="uuid-fe872481-34a9-4803-acb4-52877798b3da" points="260.5506124232 286.0060439837 193.5071124232 258.7746228704 198.6214124232 258.7746228704 260.5506124232 283.9396228704 260.5506124232 286.0060439837"/>
              <polygon class="uuid-0bc7c097-9254-444d-905b-421671bda39d" points="260.5506124232 288.0744439314 188.3900124232 258.7746228704 193.5071124232 258.7746228704 260.5506124232 286.0060439837 260.5506124232 288.0744439314"/>
              <polygon class="uuid-51f44ec1-2407-48b0-86d1-748b61ba4ce5" points="260.5506124232 290.1408438792 183.2752124232 258.7746228704 188.3900124232 258.7746228704 260.5506124232 288.0744439314 260.5506124232 290.1408438792"/>
              <polygon class="uuid-49002eef-2613-477b-a492-800505c9c0c5" points="260.5506124232 292.208243827 178.1585124232 258.7746228704 183.2752124232 258.7746228704 260.5506124232 290.1398438792 260.5506124232 292.208243827"/>
              <polygon class="uuid-8bb8b520-177d-4d84-817f-20f06297c3c7" points="260.5506124232 294.2756228704 173.0413124232 258.7746228704 178.1585124232 258.7746228704 260.5506124232 292.208243827 260.5506124232 294.2756228704"/>
              <polygon class="uuid-6b614d01-90c6-4b7e-9dfe-a99ab8931fb4" points="260.5506124232 296.3420437226 167.9266124232 258.7746228704 173.0413124232 258.7746228704 260.5506124232 294.2756228704 260.5506124232 296.3420437226"/>
              <polygon class="uuid-2661784a-e579-44e9-8dd0-41f6ece661e9" points="260.5506124232 298.4094436703 162.8099124232 258.7746228704 167.9266124232 258.7746228704 260.5506124232 296.3420437226 260.5506124232 298.4094436703"/>
              <polygon class="uuid-c5453c83-9f2a-4d51-a4d0-398142c2244e" points="260.5506124232 300.4767436181 157.6927124232 258.7746228704 162.8099124232 258.7746228704 260.5506124232 298.4094436703 260.5506124232 300.4767436181"/>
              <polygon class="uuid-00c0252f-48fe-4d81-844b-683e48d3f64d" points="260.5506124232 302.5432435659 152.5779124232 258.7746228704 157.6927124232 258.7746228704 260.5506124232 300.4767436181 260.5506124232 302.5432435659"/>
              <polygon class="uuid-0211ec86-7fca-4b40-b23d-5c0ea5bb80cd" points="260.5506124232 304.6105435137 147.4612124232 258.7746228704 152.5779124232 258.7746228704 260.5506124232 302.5432435659 260.5506124232 304.6105435137"/>
              <polygon class="uuid-a21f9139-63eb-49a1-8bd2-3b5af5c32225" points="260.5506124232 306.6769434615 142.3465124232 258.7746228704 147.4612124232 258.7746228704 260.5506124232 304.6105435137 260.5506124232 306.6769434615"/>
              <polygon class="uuid-558e7a9c-698c-4c2d-b7d0-aef311b64b97" points="260.5506124232 308.7443434093 137.2293124232 258.7746228704 142.3465124232 258.7746228704 260.5506124232 306.6769434615 260.5506124232 308.7443434093"/>
              <polygon class="uuid-978f0b13-4c28-49f0-9ec5-a3e136f8fed6" points="260.5506124232 310.811743357 132.1126124232 258.7746228704 137.2293124232 258.7746228704 260.5506124232 308.7443434093 260.5506124232 310.811743357"/>
              <path class="uuid-e3e9974b-235f-4af9-9175-80b872fd55f0" d="M260.5506124232,312.8781433048l-130.2017-52.6776986692.5743-1.4258217652c1.2645497258-.8751708005,128.4413358476,52.0257330111,129.6274,52.0371204866v2.0663999478Z"/>
              <polygon class="uuid-f03e8482-697e-461c-b3dd-8e9bb7f537d6" points="260.5506124232 314.9455432526 129.6312124232 262.0412445891 130.3377124232 260.263944634 260.5506124232 312.8781433048 260.5506124232 314.9455432526"/>
              <polygon class="uuid-138d8fb3-f4c9-491b-bf5d-d3a6a7eb6504" points="260.5506124232 317.0129432004 128.9134124232 263.8185445442 129.6199124232 262.0412445891 260.5506124232 314.9455432526 260.5506124232 317.0129432004"/>
              <polygon class="uuid-3c1f5470-adc1-4d27-9d5e-f1e0f25cd7b2" points="260.5506124232 319.0793431482 128.1951124232 265.5949444993 128.9022124232 263.8185445442 260.5506124232 317.0129432004 260.5506124232 319.0793431482"/>
              <polygon class="uuid-3c1f5470-adc1-4d27-9d5e-f1e0f25cd7b2" points="260.5506124232 321.1467430959 127.4774124232 267.3723444544 128.1834124232 265.5949444993 260.5506124232 319.0793431482 260.5506124232 321.1467430959"/>
              <polygon class="uuid-b96c8fb8-6e86-4423-8c49-7996829f413b" points="260.5506124232 323.2131430437 126.7591124232 269.1486228704 127.4656124232 267.3723444544 260.5506124232 321.1467430959 260.5506124232 323.2131430437"/>
              <polygon class="uuid-0b9eb8c5-0724-485e-999c-9a6fadcc9cb7" points="260.5506124232 325.2805429915 126.0413124232 270.9260443646 126.7479124232 269.1486228704 260.5506124232 323.2131430437 260.5506124232 325.2805429915"/>
              <polygon class="uuid-4c5fb0fc-33e6-4f37-b282-90b9c0ad802d" points="260.5506124232 327.3478429393 125.3235124232 272.7033443197 126.0301124232 270.9260443646 260.5506124232 325.2805429915 260.5506124232 327.3478429393"/>
              <polygon class="uuid-a6cd7eb8-cdb3-41d5-b3a2-a62ee4cf8673" points="260.5506124232 329.4142428871 124.6053124232 274.4797442749 125.3123124232 272.7033443197 260.5506124232 327.3478429393 260.5506124232 329.4142428871"/>
              <polygon class="uuid-a6cd7eb8-cdb3-41d5-b3a2-a62ee4cf8673" points="260.5506124232 331.4816228704 123.8875124232 276.25704423 124.5936124232 274.4797442749 260.5506124232 329.4142428871 260.5506124232 331.4816228704"/>
              <polygon class="uuid-9e03abda-6f60-4e75-8ceb-7bc2bd0a7e47" points="260.5506124232 333.5490427826 123.1697124232 278.0344441851 123.8758124232 276.25704423 260.5506124232 331.4816228704 260.5506124232 333.5490427826"/>
              <polygon class="uuid-ea5b9360-2675-4422-b150-57fcc806e87a" points="260.5506124232 335.6154427304 122.4515124232 279.8107441402 123.1580124232 278.0344441851 260.5506124232 333.5490427826 260.5506124232 335.6154427304"/>
              <polygon class="uuid-3604f258-fc57-47d3-b6f9-168aae651115" points="260.5506124232 337.6828426782 121.7337124232 281.5881440953 122.4402124232 279.8107441402 260.5506124232 335.6154427304 260.5506124232 337.6828426782"/>
              <polygon class="uuid-3604f258-fc57-47d3-b6f9-168aae651115" points="260.5506124232 339.749242626 121.0159124232 283.3644440504 121.7225124232 281.5881440953 260.5506124232 337.6828426782 260.5506124232 339.749242626"/>
              <polygon class="uuid-99294233-d763-42b2-8985-884750e7639c" points="260.5506124232 341.8166228704 120.2977124232 285.1418440055 121.0047124232 283.3644440504 260.5506124232 339.749242626 260.5506124232 341.8166228704"/>
              <polygon class="uuid-d87bb97f-5756-4aa5-b7e1-b944e8eaaf90" points="260.5506124232 343.8840425216 119.5799124232 286.9191439606 120.2860124232 285.1418440055 260.5506124232 341.8166228704 260.5506124232 343.8840425216"/>
              <polygon class="uuid-07d5f3c9-f5ae-4f50-8e9e-14730fa15a0a" points="260.5506124232 345.9504424694 118.8621124232 288.6955439157 119.5682124232 286.9191439606 260.5506124232 343.8840425216 260.5506124232 345.9504424694"/>
              <polygon class="uuid-8f42a415-07d8-4ff2-9cf7-fa2a2469c80b" points="260.5506124232 348.0178424171 118.1439124232 290.4728438708 118.8504124232 288.6955439157 260.5506124232 345.9504424694 260.5506124232 348.0178424171"/>
              <polygon class="uuid-ab1ea862-c9d7-46e5-b583-4a7a9daaeeaa" points="260.5506124232 350.0842423649 117.4261124232 292.2502438259 118.1326124232 290.4728438708 260.5506124232 348.0178424171 260.5506124232 350.0842423649"/>
              <polygon class="uuid-cd4a49a4-4b25-4780-842f-0be91982b4cb" points="260.5506124232 352.1516228704 116.7083124232 294.0266228704 117.4149124232 292.2502438259 260.5506124232 350.0842423649 260.5506124232 352.1516228704"/>
              <polygon class="uuid-bca599f9-058a-4674-b92b-20d495412b97" points="260.5506124232 354.2189422605 115.9901124232 295.8039437362 116.6971124232 294.0266228704 260.5506124232 352.1516228704 260.5506124232 354.2189422605"/>
              <polygon class="uuid-7a2ded7f-b64b-4c8f-9c24-452ef4af3867" points="260.5506124232 356.2853422083 115.2723124232 297.5803436913 115.9783124232 295.8039437362 260.5506124232 354.2189422605 260.5506124232 356.2853422083"/>
              <polygon class="uuid-dae1e375-c309-4356-abdb-dc22922a8ee4" points="260.5506124232 358.353742156 114.5545124232 299.3576228704 115.2606124232 297.5803436913 260.5506124232 356.2853422083 260.5506124232 358.353742156"/>
              <polygon class="uuid-f668445e-8d46-449d-a9e6-e34d687871fb" points="260.5506124232 360.4211421038 113.8362124232 301.1350436015 114.5428124232 299.3576228704 260.5506124232 358.353742156 260.5506124232 360.4211421038"/>
              <polygon class="uuid-0ab87257-b18d-48f7-92db-e423e86259af" points="260.5506124232 362.4865420516 113.1185124232 302.9113435566 113.8250124232 301.1350436015 260.5506124232 360.4211421038 260.5506124232 362.4865420516"/>
              <polygon class="uuid-ea0ba887-2b40-47fc-89f5-28cc99dd76f5" points="260.5506124232 364.5549419994 112.4002124232 304.6887435117 113.1072124232 302.9113435566 260.5506124232 362.4865420516 260.5506124232 364.5549419994"/>
              <polygon class="uuid-40331014-c9a6-4749-a49d-c27d96e15842" points="260.5506124232 365.7746228704 260.2796124232 366.5021419502 111.6942124232 306.4650434668 112.3944124232 304.6887435117 260.5506124232 364.5549419994 260.5506124232 365.7746228704"/>
              <rect class="uuid-89d6ee01-c6f5-4525-a484-6e34e48a9522" x="184.6866778349" y="257.2386838784" width="1.9168691766" height="160.2672176153" transform="translate(-196.6979125977 383.1760355101) rotate(-68.008762982)"/>
              <rect class="uuid-b729fb63-8c4e-4442-b031-1e1da4a6aa50" x="183.9686149151" y="259.0160570131" width="1.9169450162" height="160.2671712561" transform="translate(-198.806705861 383.5217471458) rotate(-67.9937866804)"/>
              <rect class="uuid-8f00a3ef-6f3b-4908-8874-cb17dfa3c5da" x="183.2510914372" y="260.7929301478" width="1.9159419721" height="160.2671248969" transform="translate(-200.9002372787 383.9924805214) rotate(-67.9975647039)"/>
              <rect class="uuid-dc7e3875-0db7-41cb-b9e4-37500c5c8a4d" x="182.5327367395" y="262.5698728213" width="1.9168513674" height="160.2669394601" transform="translate(-202.9973505472 384.4312352041) rotate(-67.9965578561)"/>
              <rect class="uuid-832b1f0f-832c-4e82-a708-91a2695e10c8" x="181.8146560128" y="264.3471995968" width="1.9169628209" height="160.2669858193" transform="translate(-205.0856348357 384.9595765705) rotate(-68.008762982)"/>
              <rect class="uuid-7426f3a6-4c7a-4ccb-a465-7f989e1e2a9c" x="181.0973221614" y="266.1239568336" width="1.9158305236" height="160.2671712561" transform="translate(-207.1906828071 385.3217046676) rotate(-67.9964442799)"/>
              <rect class="uuid-4f62db34-330e-4a1f-97a3-54ab0a73e54b" x="180.3788947292" y="267.9009197527" width="1.9169353881" height="160.2669359453" transform="translate(-209.2863427933 385.7742204335) rotate(-67.9974675189)"/>
              <rect class="uuid-7ba68ca8-4019-473f-ac68-91af1e8f5610" x="179.6613384195" y="269.677762163" width="1.9159980074" height="160.2670010348" transform="translate(-211.3826264573 386.2217675259) rotate(-67.9977749453)"/>
              <rect class="uuid-63d733e3-873b-4522-80da-6b92f3c938a6" x="178.9430353769" y="271.4545223337" width="1.9168040927" height="160.2671899864" transform="translate(-213.4729677035 386.7350777021) rotate(-68.0076436418)"/>
              <rect class="uuid-a3c2b268-21c8-4d67-83a6-3a842b378e63" x="178.225141058" y="273.2319696391" width="1.9168427305" height="160.2669359705" transform="translate(-215.57666054 387.1033675565) rotate(-67.9963492177)"/>
              <rect class="uuid-74245b0c-2ace-46fe-bddb-7e2047dd3e8c" x="177.5075152739" y="275.0087964146" width="1.9160442986" height="160.2669823297" transform="translate(-217.6722847362 387.5586157141) rotate(-67.9977734366)"/>
              <rect class="uuid-299549ce-6f7b-48f8-b9f6-dba231a82cb3" x="176.7892353773" y="276.7855721991" width="1.9168040918" height="160.2671899864" transform="translate(-219.7627274813 388.0804301993) rotate(-68.008762982)"/>
              <polygon class="uuid-299549ce-6f7b-48f8-b9f6-dba231a82cb3" points="251.6873124232 387.846941411 224.6546124232 454.7746228704 89.5506124232 454.7746228704 89.5506124232 360.2902421071 102.8860124232 327.7990429279 251.6873124232 387.846941411"/>
            </g>
          </g>
          <g class="uuid-5df5a3db-3bac-4f2f-b5bb-288c1313fcff">
            <g class="uuid-c35df3d8-9346-4ab1-b8fc-54dc72638182">
              <polygon class="uuid-299549ce-6f7b-48f8-b9f6-dba231a82cb3" points="273.8709124232 454.7746228704 245.8192124232 388.6730413901 392.6981124232 326.3342429649 406.5506124232 358.8771421428 406.5506124232 454.7746228704 273.8709124232 454.7746228704"/>
              <rect class="uuid-299549ce-6f7b-48f8-b9f6-dba231a82cb3" x="239.102802703" y="355.6470659308" width="159.5250194405" height="1.9212025387" transform="translate(-113.9715439166 152.9010851599) rotate(-22.9949571069)"/>
              <rect class="uuid-74245b0c-2ace-46fe-bddb-7e2047dd3e8c" x="238.3522929347" y="353.8794282156" width="159.525038977" height="1.9203280585" transform="translate(-113.3775248157 152.5464064684) rotate(-23.0054471592)"/>
              <rect class="uuid-a3c2b268-21c8-4d67-83a6-3a842b378e63" x="237.6018046903" y="352.1109257858" width="159.5250654658" height="1.9211830073" transform="translate(-112.7053273664 152.0249992473) rotate(-22.993792104)"/>
              <rect class="uuid-63d733e3-873b-4522-80da-6b92f3c938a6" x="236.8513164459" y="350.3432783049" width="159.5250919547" height="1.9203280585" transform="translate(-112.1149055196 151.6785691028) rotate(-23.0054471592)"/>
              <rect class="uuid-7ba68ca8-4019-473f-ac68-91af1e8f5610" x="236.1008085086" y="348.57475711" width="159.5251078293" height="1.9212111658" transform="translate(-111.4465285785 151.1647737784) rotate(-22.9947387368)"/>
              <rect class="uuid-4f62db34-330e-4a1f-97a3-54ab0a73e54b" x="235.3503085086" y="346.8071760331" width="159.5251078293" height="1.9202734089" transform="translate(-110.8530494535 150.8123387148) rotate(-23.0056657217)"/>
              <rect class="uuid-7426f3a6-4c7a-4ccb-a465-7f989e1e2a9c" x="234.5998066777" y="345.0386661988" width="159.5251114911" height="1.9212025387" transform="translate(-110.1851792373 150.2990557494) rotate(-22.9949571069)"/>
              <rect class="uuid-832b1f0f-832c-4e82-a708-91a2695e10c8" x="233.8493449221" y="343.2710382535" width="159.5250850023" height="1.9203085186" transform="translate(-109.5803789671 149.9225835955) rotate(-23.0027007541)"/>
              <rect class="uuid-dc7e3875-0db7-41cb-b9e4-37500c5c8a4d" x="233.098902703" y="341.5025162881" width="159.5250194405" height="1.9212025387" transform="translate(-108.9191234971 149.4231481486) rotate(-22.993792104)"/>
              <rect class="uuid-8f00a3ef-6f3b-4908-8874-cb17dfa3c5da" x="232.3484124712" y="339.7348785729" width="159.5249999041" height="1.9203280585" transform="translate(-108.327075125 149.0750219005) rotate(-23.0054471591)"/>
              <rect class="uuid-b729fb63-8c4e-4442-b031-1e1da4a6aa50" x="231.597902703" y="337.9663663774" width="159.5250194405" height="1.9212025387" transform="translate(-107.6609217718 148.564373338) rotate(-22.9949571069)"/>
              <path class="uuid-89d6ee01-c6f5-4525-a484-6e34e48a9522" d="M237.8035124232,369.2082418818c-.1142309228-.4385046715-.3185525177-1.4285326858-.2529-1.8769999526l146.3462-62.2216190588.7505,1.767520586-146.8438,62.3310984254Z"/>
              <polygon class="uuid-40331014-c9a6-4749-a49d-c27d96e15842" points="237.5506124232 365.244341982 383.1463124232 303.3410435458 384.0169124232 305.1096228704 237.5506124232 367.3312419292 237.5506124232 365.244341982"/>
              <polygon class="uuid-ea0ba887-2b40-47fc-89f5-28cc99dd76f5" points="237.5506124232 363.1584420346 382.3958124232 301.5734435904 383.2664124232 303.3410435458 237.5506124232 365.244341982 237.5506124232 363.1584420346"/>
              <polygon class="uuid-0ab87257-b18d-48f7-92db-e423e86259af" points="237.5506124232 361.0715420874 381.6453124232 299.8049436351 382.5159124232 301.5734435904 237.5506124232 363.1584420346 237.5506124232 361.0715420874"/>
              <polygon class="uuid-f668445e-8d46-449d-a9e6-e34d687871fb" points="237.5506124232 358.9846228704 380.8948124232 298.0373436797 381.7654124232 299.8049436351 237.5506124232 361.0715420874 237.5506124232 358.9846228704"/>
              <polygon class="uuid-dae1e375-c309-4356-abdb-dc22922a8ee4" points="237.5506124232 356.8976228704 380.1444124232 296.2687437244 381.0150124232 298.0373436797 237.5506124232 358.9846228704 237.5506124232 356.8976228704"/>
              <polygon class="uuid-7a2ded7f-b64b-4c8f-9c24-452ef4af3867" points="237.5506124232 354.8117422455 379.3939124232 294.5012437691 380.2645124232 296.2687437244 237.5506124232 356.8976228704 237.5506124232 354.8117422455"/>
              <polygon class="uuid-bca599f9-058a-4674-b92b-20d495412b97" points="237.5506124232 352.7248422982 378.6434124232 292.7326228704 379.5140124232 294.5012437691 237.5506124232 354.8117422455 237.5506124232 352.7248422982"/>
              <polygon class="uuid-cd4a49a4-4b25-4780-842f-0be91982b4cb" points="237.5506124232 350.6379423509 377.8924124232 290.9650438584 378.7635124232 292.7326228704 237.5506124232 352.7248422982 237.5506124232 350.6379423509"/>
              <polygon class="uuid-ab1ea862-c9d7-46e5-b583-4a7a9daaeeaa" points="237.5506124232 348.5510424037 377.1419124232 289.1965439031 378.0125124232 290.9650438584 237.5506124232 350.6379423509 237.5506124232 348.5510424037"/>
              <polygon class="uuid-8f42a415-07d8-4ff2-9cf7-fa2a2469c80b" points="237.5506124232 346.4650424564 376.3914124232 287.4289439477 377.2620124232 289.1965439031 237.5506124232 348.5510424037 237.5506124232 346.4650424564"/>
              <polygon class="uuid-07d5f3c9-f5ae-4f50-8e9e-14730fa15a0a" points="237.5506124232 344.3781425091 375.6409124232 285.6603439924 376.5115124232 287.4289439477 237.5506124232 346.4650424564 237.5506124232 344.3781425091"/>
              <polygon class="uuid-d87bb97f-5756-4aa5-b7e1-b944e8eaaf90" points="237.5506124232 342.2912425618 374.8904124232 283.8928440371 375.7610124232 285.6603439924 237.5506124232 344.3781425091 237.5506124232 342.2912425618"/>
              <polygon class="uuid-99294233-d763-42b2-8985-884750e7639c" points="237.5506124232 340.2043426145 374.1400124232 282.1242440817 375.0106124232 283.8928440371 237.5506124232 342.2912425618 237.5506124232 340.2043426145"/>
              <polygon class="uuid-3604f258-fc57-47d3-b6f9-168aae651115" points="237.5506124232 338.1183426672 373.3895124232 280.3566228704 374.2601124232 282.1242440817 237.5506124232 340.2043426145 237.5506124232 338.1183426672"/>
              <polygon class="uuid-3604f258-fc57-47d3-b6f9-168aae651115" points="237.5506124232 336.0314427199 372.6390124232 278.5881441711 373.5096124232 280.3566228704 237.5506124232 338.1183426672 237.5506124232 336.0314427199"/>
              <polygon class="uuid-ea5b9360-2675-4422-b150-57fcc806e87a" points="237.5506124232 333.9455427726 371.8885124232 276.8205442157 372.7591124232 278.5881441711 237.5506124232 336.0314427199 237.5506124232 333.9455427726"/>
              <polygon class="uuid-9e03abda-6f60-4e75-8ceb-7bc2bd0a7e47" points="237.5506124232 331.8576228704 371.1380124232 275.0519442604 372.0086124232 276.8205442157 237.5506124232 333.9455427726 237.5506124232 331.8576228704"/>
              <polygon class="uuid-a6cd7eb8-cdb3-41d5-b3a2-a62ee4cf8673" points="237.5506124232 329.7717428781 370.3875124232 273.2844443051 371.2581124232 275.0519442604 237.5506124232 331.8576228704 237.5506124232 329.7717428781"/>
              <polygon class="uuid-a6cd7eb8-cdb3-41d5-b3a2-a62ee4cf8673" points="237.5506124232 327.6848429308 369.6370124232 271.5158443497 370.5076124232 273.2844443051 237.5506124232 329.7717428781 237.5506124232 327.6848429308"/>
              <polygon class="uuid-4c5fb0fc-33e6-4f37-b282-90b9c0ad802d" points="237.5506124232 325.5988429835 368.8865124232 269.7482443944 369.7571124232 271.5158443497 237.5506124232 327.6848429308 237.5506124232 325.5988429835"/>
              <polygon class="uuid-0b9eb8c5-0724-485e-999c-9a6fadcc9cb7" points="237.5506124232 323.5119430362 368.1360124232 267.9797444391 369.0067124232 269.7482443944 237.5506124232 325.5988429835 237.5506124232 323.5119430362"/>
              <polygon class="uuid-b96c8fb8-6e86-4423-8c49-7996829f413b" points="237.5506124232 321.4250430889 367.3856124232 266.2121444837 368.2562124232 267.9797444391 237.5506124232 323.5119430362 237.5506124232 321.4250430889"/>
              <polygon class="uuid-3c1f5470-adc1-4d27-9d5e-f1e0f25cd7b2" points="237.5506124232 319.3381431416 366.6351124232 264.4435445284 367.5057124232 266.2121444837 237.5506124232 321.4250430889 237.5506124232 319.3381431416"/>
              <polygon class="uuid-3c1f5470-adc1-4d27-9d5e-f1e0f25cd7b2" points="237.5506124232 317.2521431943 365.8846124232 262.676044573 366.7552124232 264.4435445284 237.5506124232 319.3381431416 237.5506124232 317.2521431943"/>
              <polygon class="uuid-138d8fb3-f4c9-491b-bf5d-d3a6a7eb6504" points="237.5506124232 315.1652432471 365.1341124232 260.9074446177 366.0047124232 262.676044573 237.5506124232 317.2521431943 237.5506124232 315.1652432471"/>
              <polygon class="uuid-f03e8482-697e-461c-b3dd-8e9bb7f537d6" points="237.5506124232 313.0793432997 364.3836124232 259.1398446624 365.2542124232 260.9074446177 237.5506124232 315.1652432471 237.5506124232 313.0793432997"/>
              <polygon class="uuid-e3e9974b-235f-4af9-9175-80b872fd55f0" points="237.5506124232 310.9914433525 359.9256124232 258.7746228704 364.0174124232 258.7746228704 364.3836124232 259.1057446632 237.5506124232 313.0793432997 237.5506124232 310.9914433525"/>
              <polygon class="uuid-978f0b13-4c28-49f0-9ec5-a3e136f8fed6" points="237.5506124232 308.9055434052 355.0110124232 258.7746228704 359.9256124232 258.7746228704 237.5506124232 310.9914433525 237.5506124232 308.9055434052"/>
              <polygon class="uuid-558e7a9c-698c-4c2d-b7d0-aef311b64b97" points="237.5506124232 306.8185434579 350.0941124232 258.7746228704 355.0110124232 258.7746228704 237.5506124232 308.9055434052 237.5506124232 306.8185434579"/>
              <polygon class="uuid-a21f9139-63eb-49a1-8bd2-3b5af5c32225" points="237.5506124232 304.7326228704 345.1795124232 258.7746228704 350.0941124232 258.7746228704 237.5506124232 306.8185434579 237.5506124232 304.7326228704"/>
              <polygon class="uuid-0211ec86-7fca-4b40-b23d-5c0ea5bb80cd" points="237.5506124232 302.6457435633 340.2625124232 258.7746228704 345.1795124232 258.7746228704 237.5506124232 304.7326228704 237.5506124232 302.6457435633"/>
              <polygon class="uuid-00c0252f-48fe-4d81-844b-683e48d3f64d" points="237.5506124232 300.558843616 335.3480124232 258.7746228704 340.2625124232 258.7746228704 237.5506124232 302.6457435633 237.5506124232 300.558843616"/>
              <polygon class="uuid-c5453c83-9f2a-4d51-a4d0-398142c2244e" points="237.5506124232 298.4719436688 330.4310124232 258.7746228704 335.3480124232 258.7746228704 237.5506124232 300.558843616 237.5506124232 298.4719436688"/>
              <polygon class="uuid-2661784a-e579-44e9-8dd0-41f6ece661e9" points="237.5506124232 296.3859437215 325.5164124232 258.7746228704 330.4310124232 258.7746228704 237.5506124232 298.4719436688 237.5506124232 296.3859437215"/>
              <polygon class="uuid-6b614d01-90c6-4b7e-9dfe-a99ab8931fb4" points="237.5506124232 294.2990437742 320.5994124232 258.7746228704 325.5164124232 258.7746228704 237.5506124232 296.3859437215 237.5506124232 294.2990437742"/>
              <polygon class="uuid-8bb8b520-177d-4d84-817f-20f06297c3c7" points="237.5506124232 292.2121438269 315.6844124232 258.7746228704 320.5994124232 258.7746228704 237.5506124232 294.2990437742 237.5506124232 292.2121438269"/>
              <polygon class="uuid-49002eef-2613-477b-a492-800505c9c0c5" points="237.5506124232 290.1252438796 310.7674124232 258.7746228704 315.6844124232 258.7746228704 237.5506124232 292.2121438269 237.5506124232 290.1252438796"/>
              <polygon class="uuid-51f44ec1-2407-48b0-86d1-748b61ba4ce5" points="237.5506124232 288.0392439323 305.8528124232 258.7746228704 310.7674124232 258.7746228704 237.5506124232 290.1252438796 237.5506124232 288.0392439323"/>
              <polygon class="uuid-0bc7c097-9254-444d-905b-421671bda39d" points="237.5506124232 285.952343985 300.9359124232 258.7746228704 305.8528124232 258.7746228704 237.5506124232 288.0392439323 237.5506124232 285.952343985"/>
              <path class="uuid-fe872481-34a9-4803-acb4-52877798b3da" d="M237.5506124232,283.8664440377c1.553922778-.1502171197,63.1795933677-28.773674858,63.3853-25.0918211673l-63.3853,27.1777211146v-2.0858999473Z"/>
              <path class="uuid-3b227ac4-75dc-4d4e-ad99-8773e71b5cc1" d="M237.5506124232,281.7785440905c1.4418872129-.175295916,58.5225643093-26.680733317,58.4707-23.0039212201l-58.4707,25.0918211673v-2.0878999473Z"/>
              <path class="uuid-138b8cc9-433e-41ae-b41f-611ab80cb1b5" d="M237.5506124232,279.6926228704c1.4217545925-.2441110451,53.7533601989-24.5304023115,53.5537-20.918l-53.5537,23.0039212201v-2.0859212201Z"/>
              <path class="uuid-6123b446-d388-4290-9278-f2505791eb77" d="M237.5506124232,277.6057441959c2.7284265069-.6577329482,46.6076670141-21.7293633116,48.6392-18.8311213255l-48.6392,20.918v-2.0868786745Z"/>
              <path class="uuid-a2eb662d-4e4c-4fff-ae92-3e4e1ec7abd1" d="M237.5506124232,275.5197442486c3.1484892205-.8549800127,40.9146051075-19.2844478035,43.7222-16.7451213782l-43.7222,18.8311213255v-2.0859999473Z"/>
              <path class="uuid-a2a7751e-6e00-4c2a-b691-d84660343eb7" d="M237.5506124232,273.4328443013c3.0399152999-.8945283646,36.2771591626-17.1803342192,38.8076-14.6582214309l-38.8076,16.7451213782v-2.0868999473Z"/>
              <polygon class="uuid-e8a24289-8a4f-4f51-b931-30d641abafd6" points="237.5506124232 271.345944354 266.5262124232 258.7746228704 271.4412124232 258.7746228704 237.5506124232 273.4328443013 237.5506124232 271.345944354"/>
              <polygon class="uuid-170804c0-e4b5-4039-8826-216ea76945c1" points="237.5506124232 269.2590444067 261.6092124232 258.7746228704 266.5262124232 258.7746228704 237.5506124232 271.345944354 237.5506124232 269.2590444067"/>
              <polygon class="uuid-d826e1c2-d0a4-433b-88d0-6297232ad45a" points="237.5506124232 267.1730444594 256.6946124232 258.7746228704 261.6092124232 258.7746228704 237.5506124232 269.2590444067 237.5506124232 267.1730444594"/>
              <polygon class="uuid-f2eca354-1903-40d8-b930-2be87018eb90" points="237.5506124232 265.0861445122 251.7777124232 258.7746228704 256.6946124232 258.7746228704 237.5506124232 267.1730444594 237.5506124232 265.0861445122"/>
              <polygon class="uuid-f2eca354-1903-40d8-b930-2be87018eb90" points="251.7777124232 258.7746228704 237.5506124232 265.0861445122 237.5506124232 258.7746228704 251.7777124232 258.7746228704"/>
            </g>
          </g>
          <g class="uuid-5df5a3db-3bac-4f2f-b5bb-288c1313fcff">
            <g class="uuid-c245f49f-8f10-4798-836f-bf829c81dd8f">
              <rect class="uuid-f2eca354-1903-40d8-b930-2be87018eb90" x="247.5506124232" y="144.7746228704" width="1" height="158"/>
              <rect class="uuid-f2eca354-1903-40d8-b930-2be87018eb90" x="248.5506124232" y="144.7746228704" width="2" height="158"/>
              <rect class="uuid-d826e1c2-d0a4-433b-88d0-6297232ad45a" x="250.5506124232" y="144.7746228704" width="2" height="158"/>
              <rect class="uuid-170804c0-e4b5-4039-8826-216ea76945c1" x="252.5506124232" y="144.7746228704" width="1" height="158"/>
              <rect class="uuid-e8a24289-8a4f-4f51-b931-30d641abafd6" x="253.5506124232" y="144.7746228704" width="2" height="158"/>
              <rect class="uuid-a2a7751e-6e00-4c2a-b691-d84660343eb7" x="255.5506124232" y="144.7746228704" width="2" height="158"/>
              <rect class="uuid-a2eb662d-4e4c-4fff-ae92-3e4e1ec7abd1" x="257.5506124232" y="144.7746228704" width="2" height="158"/>
              <rect class="uuid-6123b446-d388-4290-9278-f2505791eb77" x="259.5506124232" y="144.7746228704" width="2" height="158"/>
              <rect class="uuid-138b8cc9-433e-41ae-b41f-611ab80cb1b5" x="261.5506124232" y="144.7746228704" width="2" height="158"/>
              <rect class="uuid-3b227ac4-75dc-4d4e-ad99-8773e71b5cc1" x="263.5506124232" y="144.7746228704" width="2" height="158"/>
              <rect class="uuid-fe872481-34a9-4803-acb4-52877798b3da" x="265.5506124232" y="144.7746228704" width="2" height="158"/>
              <rect class="uuid-0bc7c097-9254-444d-905b-421671bda39d" x="267.5506124232" y="144.7746228704" width="2" height="158"/>
              <rect class="uuid-51f44ec1-2407-48b0-86d1-748b61ba4ce5" x="269.5506124232" y="144.7746228704" width="2" height="158"/>
              <rect class="uuid-49002eef-2613-477b-a492-800505c9c0c5" x="271.5506124232" y="144.7746228704" width="1" height="158"/>
              <rect class="uuid-8bb8b520-177d-4d84-817f-20f06297c3c7" x="272.5506124232" y="144.7746228704" width="2" height="158"/>
              <rect class="uuid-6b614d01-90c6-4b7e-9dfe-a99ab8931fb4" x="274.5506124232" y="144.7746228704" width="2" height="158"/>
              <rect class="uuid-2661784a-e579-44e9-8dd0-41f6ece661e9" x="276.5506124232" y="144.7746228704" width="2" height="158"/>
              <rect class="uuid-c5453c83-9f2a-4d51-a4d0-398142c2244e" x="278.5506124232" y="144.7746228704" width="2" height="158"/>
              <rect class="uuid-00c0252f-48fe-4d81-844b-683e48d3f64d" x="280.5506124232" y="144.7746228704" width="2" height="158"/>
              <rect class="uuid-0211ec86-7fca-4b40-b23d-5c0ea5bb80cd" x="282.5506124232" y="144.7746228704" width="2" height="158"/>
              <rect class="uuid-a21f9139-63eb-49a1-8bd2-3b5af5c32225" x="284.5506124232" y="144.7746228704" width="2" height="158"/>
              <rect class="uuid-558e7a9c-698c-4c2d-b7d0-aef311b64b97" x="286.5506124232" y="144.7746228704" width="2" height="158"/>
              <rect class="uuid-978f0b13-4c28-49f0-9ec5-a3e136f8fed6" x="288.5506124232" y="144.7746228704" width="1" height="158"/>
              <rect class="uuid-e3e9974b-235f-4af9-9175-80b872fd55f0" x="289.5506124232" y="144.7746228704" width="2" height="158"/>
              <rect class="uuid-f03e8482-697e-461c-b3dd-8e9bb7f537d6" x="291.5506124232" y="144.7746228704" width="2" height="158"/>
              <rect class="uuid-138d8fb3-f4c9-491b-bf5d-d3a6a7eb6504" x="293.5506124232" y="144.7746228704" width="2" height="158"/>
              <rect class="uuid-3c1f5470-adc1-4d27-9d5e-f1e0f25cd7b2" x="295.5506124232" y="144.7746228704" width="2" height="158"/>
              <rect class="uuid-3c1f5470-adc1-4d27-9d5e-f1e0f25cd7b2" x="297.5506124232" y="144.7746228704" width="2" height="158"/>
              <rect class="uuid-b96c8fb8-6e86-4423-8c49-7996829f413b" x="299.5506124232" y="144.7746228704" width="2" height="158"/>
              <rect class="uuid-0b9eb8c5-0724-485e-999c-9a6fadcc9cb7" x="301.5506124232" y="144.7746228704" width="2" height="158"/>
              <rect class="uuid-4c5fb0fc-33e6-4f37-b282-90b9c0ad802d" x="303.5506124232" y="144.7746228704" width="2" height="158"/>
              <rect class="uuid-a6cd7eb8-cdb3-41d5-b3a2-a62ee4cf8673" x="305.5506124232" y="144.7746228704" width="2" height="158"/>
              <rect class="uuid-a6cd7eb8-cdb3-41d5-b3a2-a62ee4cf8673" x="307.5506124232" y="144.7746228704" width="1" height="158"/>
              <rect class="uuid-9e03abda-6f60-4e75-8ceb-7bc2bd0a7e47" x="308.5506124232" y="144.7746228704" width="2" height="158"/>
              <rect class="uuid-ea5b9360-2675-4422-b150-57fcc806e87a" x="310.5506124232" y="144.7746228704" width="2" height="158"/>
              <rect class="uuid-3604f258-fc57-47d3-b6f9-168aae651115" x="312.5506124232" y="144.7746228704" width="2" height="158"/>
              <rect class="uuid-3604f258-fc57-47d3-b6f9-168aae651115" x="314.5506124232" y="144.7746228704" width="2" height="158"/>
              <rect class="uuid-99294233-d763-42b2-8985-884750e7639c" x="316.5506124232" y="144.7746228704" width="2" height="158"/>
              <rect class="uuid-d87bb97f-5756-4aa5-b7e1-b944e8eaaf90" x="318.5506124232" y="144.7746228704" width="2" height="158"/>
              <rect class="uuid-07d5f3c9-f5ae-4f50-8e9e-14730fa15a0a" x="320.5506124232" y="144.7746228704" width="2" height="158"/>
              <rect class="uuid-8f42a415-07d8-4ff2-9cf7-fa2a2469c80b" x="322.5506124232" y="144.7746228704" width="2" height="158"/>
              <rect class="uuid-ab1ea862-c9d7-46e5-b583-4a7a9daaeeaa" x="324.5506124232" y="144.7746228704" width="1" height="158"/>
              <rect class="uuid-cd4a49a4-4b25-4780-842f-0be91982b4cb" x="325.5506124232" y="144.7746228704" width="2" height="158"/>
              <rect class="uuid-bca599f9-058a-4674-b92b-20d495412b97" x="327.5506124232" y="144.7746228704" width="2" height="158"/>
              <rect class="uuid-7a2ded7f-b64b-4c8f-9c24-452ef4af3867" x="329.5506124232" y="144.7746228704" width="2" height="158"/>
              <rect class="uuid-dae1e375-c309-4356-abdb-dc22922a8ee4" x="331.5506124232" y="144.7746228704" width="2" height="158"/>
              <rect class="uuid-f668445e-8d46-449d-a9e6-e34d687871fb" x="333.5506124232" y="144.7746228704" width="2" height="158"/>
              <rect class="uuid-0ab87257-b18d-48f7-92db-e423e86259af" x="335.5506124232" y="144.7746228704" width="2" height="158"/>
              <rect class="uuid-ea0ba887-2b40-47fc-89f5-28cc99dd76f5" x="337.5506124232" y="144.7746228704" width="2" height="158"/>
              <rect class="uuid-40331014-c9a6-4749-a49d-c27d96e15842" x="339.5506124232" y="144.7746228704" width="2" height="158"/>
              <rect class="uuid-89d6ee01-c6f5-4525-a484-6e34e48a9522" x="341.5506124232" y="144.7746228704" width="2" height="158"/>
              <rect class="uuid-b729fb63-8c4e-4442-b031-1e1da4a6aa50" x="343.5506124232" y="144.7746228704" width="1" height="158"/>
              <rect class="uuid-8f00a3ef-6f3b-4908-8874-cb17dfa3c5da" x="344.5506124232" y="144.7746228704" width="2" height="158"/>
              <rect class="uuid-dc7e3875-0db7-41cb-b9e4-37500c5c8a4d" x="346.5506124232" y="144.7746228704" width="2" height="158"/>
              <rect class="uuid-832b1f0f-832c-4e82-a708-91a2695e10c8" x="348.5506124232" y="144.7746228704" width="2" height="158"/>
              <rect class="uuid-7426f3a6-4c7a-4ccb-a465-7f989e1e2a9c" x="350.5506124232" y="144.7746228704" width="2" height="158"/>
              <rect class="uuid-4f62db34-330e-4a1f-97a3-54ab0a73e54b" x="352.5506124232" y="144.7746228704" width="2" height="158"/>
              <rect class="uuid-7ba68ca8-4019-473f-ac68-91af1e8f5610" x="354.5506124232" y="144.7746228704" width="2" height="158"/>
              <rect class="uuid-63d733e3-873b-4522-80da-6b92f3c938a6" x="356.5506124232" y="144.7746228704" width="2" height="158"/>
              <rect class="uuid-a3c2b268-21c8-4d67-83a6-3a842b378e63" x="358.5506124232" y="144.7746228704" width="2" height="158"/>
              <rect class="uuid-74245b0c-2ace-46fe-bddb-7e2047dd3e8c" x="360.5506124232" y="144.7746228704" width="1" height="158"/>
              <rect class="uuid-299549ce-6f7b-48f8-b9f6-dba231a82cb3" x="361.5506124232" y="144.7746228704" width="2" height="158"/>
              <rect class="uuid-299549ce-6f7b-48f8-b9f6-dba231a82cb3" x="363.5506124232" y="144.7746228704" width="96" height="158"/>
            </g>
          </g>
          <g>
            <g>
              <path class="uuid-73af4985-5f9d-43b4-a427-db087a9257d7" d="M264.9891124232,312.3068433193c-1.0244.3349999915-2.0537,0-2.2949-.7440999812l-33.2071-102.1952974183c-.2392-.7402999813.3965-1.6161999592,1.4248-1.9462999508,1.0264-.3349999915,2.0537-.0019999999,2.2969.7411999813l33.2041,102.1981974183c.2422.7411999813-.3955,1.6132999592-1.4238,1.9462999508Z"/>
              <g>
                <path class="uuid-0053259d-d775-499d-b1a6-eb9544044a4c" d="M224.4744124232,209.5285459157c-2.9165277684-8.5475991134,10.578408322-12.9323342903,13.2433554372-4.3011961243,2.9187088358,8.549573011-10.5794313627,12.9387255027-13.2433554372,4.3011961243Z"/>
                <path class="uuid-0053259d-d775-499d-b1a6-eb9544044a4c" d="M258.3514124232,314.3918432666c-2.9196736392-8.5529621103,10.5794423012-12.9313591168,13.2423553197-4.3030976783,2.9197267658,8.554793578-10.5784415198,12.9377221229-13.2423553197,4.3030976783Z"/>
              </g>
            </g>
            <g>
              <path class="uuid-73af4985-5f9d-43b4-a427-db087a9257d7" d="M288.9676124232,296.7932437112c-.7217.8026999797-1.7774,1.0321999739-2.3584.5106999871l-79.8535-71.9063208279c-.5821-.5194773425-.4688-1.5946773153.2549-2.397377295.7236-.8036999797,1.7773-1.028299974,2.3584-.5058999872l79.8554,71.9013981836c.5801.5233999868.4649,1.5966999597-.2568,2.3974999394Z"/>
              <g>
                <path class="uuid-0053259d-d775-499d-b1a6-eb9544044a4c" d="M202.4901124232,228.0451454479c-6.8003978289-5.9447369396,2.6972940149-16.4919788741,9.3187357943-10.3462544628,6.7994759503,5.9450128848-2.6908965072,16.4918887828-9.3187357943,10.3462544628Z"/>
                <path class="uuid-0053259d-d775-499d-b1a6-eb9544044a4c" d="M284.2596124232,301.9201435817c-6.8007279277-5.9443524822,2.695508506-16.4890850074,9.3197359782-10.3452560861,6.804552211,5.9417646559-2.6993776135,16.4959333216-9.3197359782,10.3452560861Z"/>
              </g>
            </g>
            <g>
              <path class="uuid-73af4985-5f9d-43b4-a427-db087a9257d7" d="M301.9744124232,271.3732443533c-.2217,1.0546999734-1.0224,1.7792999551-1.7871,1.6181999591l-105.1094-22.3428214421c-.7627-.1581779895-1.2002-1.1483779645-.9765-2.2050779378.2246-1.0584999733,1.0254-1.7792999551,1.7881-1.6161999592l105.1123,22.3427994356c.7617.1620999959,1.1992,1.148399971.9726,2.2030999443Z"/>
              <g>
                <path class="uuid-0053259d-d775-499d-b1a6-eb9544044a4c" d="M192.7098124232,255.0715447651c-8.8654913767-1.748052224-5.9092373328-15.625319369,2.8961002435-13.61803337,8.8623533674,1.7468512278,5.9135177357,15.6308312218-2.8961002435,13.61803337Z"/>
                <path class="uuid-0053259d-d775-499d-b1a6-eb9544044a4c" d="M300.4627124232,278.1672441817c-8.8632073013-1.7480061707-5.9129152261-15.631535871,2.894200508-13.6209343412,8.8655669892,1.7498315682,5.9150443061,15.6262153492-2.894200508,13.6209343412Z"/>
              </g>
            </g>
            <g>
              <path class="uuid-73af4985-5f9d-43b4-a427-db087a9257d7" d="M300.5311124232,242.8517450738c.334,1.0263999741.0019,2.056699948-.7403,2.2978777965l-102.1992,33.2061213066c-.7412.2401999939-1.6123-.39559999-1.9463-1.4218999641-.334-1.028299974-.0039-2.0546999481.7403-2.294899942l102.1992-33.2070991611c.7412-.2422222393,1.6123.3925999901,1.9463,1.4198999641Z"/>
              <g>
                <path class="uuid-0053259d-d775-499d-b1a6-eb9544044a4c" d="M197.7567124232,283.3674440503c-8.5556821547,2.9198868982-12.9367340428-10.5731390695-4.3040979052-13.2443551606,8.5485427907-2.9090351895,12.9337319592,10.5781363135,4.3040979052,13.2443551606Z"/>
                <path class="uuid-0053259d-d775-499d-b1a6-eb9544044a4c" d="M302.6190124232,249.494344906c-8.5492692822,2.9191223916-12.938194064-10.5819918115-4.3060973188-13.2432584582,8.5514076298-2.919288007,12.9378143791,10.57640034,4.3060973188,13.2432584582Z"/>
              </g>
            </g>
            <g>
              <path class="uuid-73af4985-5f9d-43b4-a427-db087a9257d7" d="M285.0213124232,218.8771456795c.8008.7226999817,1.0303,1.7773999551.5049,2.3593999404l-71.9024,79.8534979827c-.5234.5820999853-1.5966.4677999882-2.3984-.2587999935-.8037-.7216207388-1.0312-1.7762999551-.5078-2.3563999405l71.9023-79.8564979827c.5235-.5799999853,1.5987-.4657999882,2.4014.2587999935Z"/>
              <g>
                <path class="uuid-0053259d-d775-499d-b1a6-eb9544044a4c" d="M216.2713124232,305.3557434949c-5.9493299713,6.7974567242-16.4914764454-2.6971423994-10.3472561227-9.3208362235,5.9434204211-6.7991316772,16.4910042504,2.6945858982,10.3472561227,9.3208362235Z"/>
                <path class="uuid-0053259d-d775-499d-b1a6-eb9544044a4c" d="M290.1473124232,223.5861455605c-5.9484267332,6.7979649649-16.4897896276-2.6964590395-10.3491561644-9.3187375285,5.945985583-6.8067771022,16.4940059111,2.6937353327,10.3491561644,9.3187375285Z"/>
              </g>
            </g>
            <g>
              <path class="uuid-73af4985-5f9d-43b4-a427-db087a9257d7" d="M259.5985124232,205.8674460082c1.0566.2235999944,1.7792,1.0253999741,1.6181,1.7909999548l-22.3447,105.1034973449c-.1592.7675999806-1.1484,1.2030999696-2.2022.9794999753-1.0586-.2216999944-1.7802-1.0233999741-1.6201-1.7890999548l22.3428-105.1102973447c.1621-.7616999808,1.1504-1.1991999697,2.2061-.9745999754Z"/>
              <g>
                <path class="uuid-0053259d-d775-499d-b1a6-eb9544044a4c" d="M243.2977124232,315.1330432479c-1.7527852521,8.8662038181-15.6257242915,5.9101533038-13.6209332152-2.8980978017,1.7531493369-8.8558008154,15.6283185972-5.9129780267,13.6209332152,2.8980978017Z"/>
                <path class="uuid-0053259d-d775-499d-b1a6-eb9544044a4c" d="M266.3924124232,207.37914597c-1.7483469496,8.8651131882-15.630330727,5.9166179566-13.619934785-2.8942004464,1.7460443601-8.8620267919,15.6284194049-5.9081102147,13.619934785,2.8942004464Z"/>
              </g>
            </g>
          </g>
        </g>
      </g>
      <g>
        <path class="uuid-70864459-9c6c-4a7e-83c9-dfc43f66b1ac" d="M400.5635599856,510.1820426707c-42.9710941878-52.5627954886-85.9364290232-125.913896473-85.9364290232-173.3768733537s38.4734521425-85.9364290232,85.9364290232-85.9364290232,85.9364400144,38.4734493947,85.9364400144,85.9364290232c0,47.4629768807-42.965340331,120.8140778651-85.9364400144,173.3768733537Z"/>
        <circle class="uuid-0053259d-d775-499d-b1a6-eb9544044a4c" cx="400.5635599856" cy="335.5201234333" r="38.8969932957"/>
        <path class="uuid-ed2539cc-519e-49a5-b0e3-eef528e4a90d" d="M410.9245689795,266.3555069634c-43.9132703815,0-79.511222961,35.5979525796-79.511222961,79.5083432849,0,4.5639130667.4062596613,9.0327418634,1.1438579429,13.3863286567-2.5960116008-7.4365329534-4.0251168582-15.4205011439-4.0251168582-23.7444579744,0-39.7815423052,32.2499333251-72.0314728825,72.0314728825-72.0314728825,8.3239568304,0,16.3108046971,1.4291038834,23.7473376505,4.0251182321-4.3535867933-.7376024032-8.82241559-1.1438593168-13.3863286567-1.1438593168Z"/>
      </g>
    </g>
  </g>
</svg>